<svg width="36" height="36" viewBox="0 0 36 36" fill="none"
    xmlns="http://www.w3.org/2000/svg">
    <mask id="mask0_1_52" style="mask-type:luminance"
        maskUnits="userSpaceOnUse" x="0" y="0" width="36" height="36">
        <path
            d="M34.6666 21.3333H21.3333V34.6666H34.6666V21.3333ZM8.83331 1.33325L16.3333 14.6666H1.33331L8.83331 1.33325ZM28 14.6666C29.7681 14.6666 31.4638 13.9642 32.714 12.714C33.9643 11.4637 34.6666 9.76803 34.6666 7.99992C34.6666 6.23181 33.9643 4.53612 32.714 3.28587C31.4638 2.03563 29.7681 1.33325 28 1.33325C26.2319 1.33325 24.5362 2.03563 23.2859 3.28587C22.0357 4.53612 21.3333 6.23181 21.3333 7.99992C21.3333 9.76803 22.0357 11.4637 23.2859 12.714C24.5362 13.9642 26.2319 14.6666 28 14.6666Z"
            fill="white" stroke="white" stroke-width="1.5"
            stroke-linejoin="round" />
        <path
            d="M1.33331 21.3333L14.6666 34.6666M14.6666 21.3333L1.33331 34.6666"
            stroke="white" stroke-width="1.5" stroke-linecap="round"
            stroke-linejoin="round" />
    </mask>
    <g mask="url(#mask0_1_52)">
        <path d="M-2 -2H38V38H-2V-2Z" fill="black" />
    </g>
</svg>