<svg width="98" height="96" viewBox="0 0 98 96" fill="none" xmlns="http://www.w3.org/2000/svg">
    <mask id="path-1-inside-1_1_368" fill="white">
        <path d="M98 95.7488L0.434761 95.7488L0.434752 2.06939e-07L98 -7.62939e-06L98 95.7488Z" />
    </mask>
    <path
        d="M98 -7.62939e-06L102 -7.95067e-06L102 -0.500008L98 -0.500008L98 -7.62939e-06ZM102 95.7488L102 94.7515L94 94.7515L94 95.7488L102 95.7488ZM102 92.7567L102 90.7619L94 90.7619L94 92.7567L102 92.7567ZM102 88.7672L102 86.7724L94 86.7724L94 88.7672L102 88.7672ZM102 84.7776L102 82.7828L94 82.7829L94 84.7776L102 84.7776ZM102 80.7881L102 78.7933L94 78.7933L94 80.7881L102 80.7881ZM102 76.7985L102 74.8038L94 74.8038L94 76.7985L102 76.7985ZM102 72.809L102 70.8142L94 70.8142L94 72.809L102 72.809ZM102 68.8195L102 66.8247L94 66.8247L94 68.8195L102 68.8195ZM102 64.8299L102 62.8352L94 62.8352L94 64.8299L102 64.8299ZM102 60.8404L102 58.8456L94 58.8456L94 60.8404L102 60.8404ZM102 56.8509L102 54.8561L94 54.8561L94 56.8509L102 56.8509ZM102 52.8613L102 50.8666L94 50.8666L94 52.8613L102 52.8613ZM102 48.8718L102 46.877L94 46.877L94 48.8718L102 48.8718ZM102 44.8823L102 42.8875L94 42.8875L94 44.8823L102 44.8823ZM102 40.8927L102 38.898L94 38.898L94 40.8927L102 40.8927ZM102 36.9032L102 34.9084L94 34.9084L94 36.9032L102 36.9032ZM102 32.9137L102 30.9189L94 30.9189L94 32.9137L102 32.9137ZM102 28.9241L102 26.9294L94 26.9294L94 28.9241L102 28.9241ZM102 24.9346L102 22.9398L94 22.9398L94 24.9346L102 24.9346ZM102 20.9451L102 18.9503L94 18.9503L94 20.9451L102 20.9451ZM102 16.9555L102 14.9608L94 14.9608L94 16.9555L102 16.9555ZM102 12.966L102 10.9712L94 10.9712L94 12.966L102 12.966ZM102 8.97648L102 6.98171L94 6.98171L94 8.97648L102 8.97648ZM102 4.98695L102 2.99218L94 2.99218L94 4.98695L102 4.98695ZM102 0.997413L102 -7.95067e-06L94 -7.30812e-06L94 0.997414L102 0.997413ZM98 -0.500008L96.9837 -0.500008L96.9837 0.499992L98 0.499992L98 -0.500008ZM94.9511 -0.500007L92.9185 -0.500007L92.9185 0.499993L94.9511 0.499993L94.9511 -0.500007ZM90.8858 -0.500007L88.8532 -0.500007L88.8532 0.499993L90.8858 0.499993L90.8858 -0.500007ZM86.8206 -0.500007L84.788 -0.500007L84.788 0.499993L86.8206 0.499993L86.8206 -0.500007ZM82.7554 -0.500006L80.7228 -0.500006L80.7228 0.499994L82.7554 0.499994L82.7554 -0.500006ZM78.6902 -0.500006L76.6576 -0.500006L76.6576 0.499994L78.6902 0.499994L78.6902 -0.500006ZM74.625 -0.500006L72.5924 -0.500006L72.5924 0.499994L74.625 0.499994L74.625 -0.500006ZM70.5598 -0.500005L68.5272 -0.500005L68.5272 0.499995L70.5598 0.499995L70.5598 -0.500005ZM66.4945 -0.500005L64.4619 -0.500005L64.4619 0.499995L66.4945 0.499995L66.4945 -0.500005ZM62.4293 -0.500005L60.3967 -0.500005L60.3967 0.499995L62.4293 0.499995L62.4293 -0.500005ZM58.3641 -0.500004L56.3315 -0.500004L56.3315 0.499996L58.3641 0.499996L58.3641 -0.500004ZM54.2989 -0.500004L52.2663 -0.500004L52.2663 0.499996L54.2989 0.499996L54.2989 -0.500004ZM50.2337 -0.500004L48.2011 -0.500004L48.2011 0.499996L50.2337 0.499996L50.2337 -0.500004ZM46.1685 -0.500003L44.1359 -0.500003L44.1359 0.499997L46.1685 0.499997L46.1685 -0.500003ZM42.1032 -0.500003L40.0706 -0.500003L40.0706 0.499997L42.1032 0.499997L42.1032 -0.500003ZM38.038 -0.500003L36.0054 -0.500003L36.0054 0.499997L38.038 0.499997L38.038 -0.500003ZM33.9728 -0.500002L31.9402 -0.500002L31.9402 0.499998L33.9728 0.499998L33.9728 -0.500002ZM29.9076 -0.500002L27.875 -0.500002L27.875 0.499998L29.9076 0.499998L29.9076 -0.500002ZM25.8424 -0.500002L23.8098 -0.500002L23.8098 0.499998L25.8424 0.499998L25.8424 -0.500002ZM21.7772 -0.500002L19.7446 -0.500001L19.7446 0.499999L21.7772 0.499998L21.7772 -0.500002ZM17.712 -0.500001L15.6793 -0.500001L15.6793 0.499999L17.712 0.499999L17.712 -0.500001ZM13.6467 -0.500001L11.6141 -0.500001L11.6141 0.499999L13.6467 0.499999L13.6467 -0.500001ZM9.58152 -0.500001L7.54891 -0.5L7.54891 0.5L9.58152 0.499999L9.58152 -0.500001ZM5.5163 -0.5L3.48369 -0.5L3.48369 0.5L5.5163 0.5L5.5163 -0.5ZM1.45109 -0.5L0.434752 -0.5L0.434752 0.5L1.45109 0.5L1.45109 -0.5ZM98 -7.62939e-06L106 -8.27195e-06L106 -1.00001L98 -1.00001L98 -7.62939e-06ZM106 95.7488L106 94.7515L90 94.7515L90 95.7488L106 95.7488ZM106 92.7567L106 90.7619L90 90.7619L90 92.7567L106 92.7567ZM106 88.7672L106 86.7724L90 86.7724L90 88.7672L106 88.7672ZM106 84.7776L106 82.7828L90 82.7829L90 84.7776L106 84.7776ZM106 80.7881L106 78.7933L90 78.7933L90 80.7881L106 80.7881ZM106 76.7985L106 74.8038L90 74.8038L90 76.7985L106 76.7985ZM106 72.809L106 70.8142L90 70.8142L90 72.809L106 72.809ZM106 68.8195L106 66.8247L90 66.8247L90 68.8195L106 68.8195ZM106 64.8299L106 62.8352L90 62.8352L90 64.8299L106 64.8299ZM106 60.8404L106 58.8456L90 58.8456L90 60.8404L106 60.8404ZM106 56.8509L106 54.8561L90 54.8561L90 56.8509L106 56.8509ZM106 52.8613L106 50.8666L90 50.8666L90 52.8613L106 52.8613ZM106 48.8718L106 46.877L90 46.877L90 48.8718L106 48.8718ZM106 44.8823L106 42.8875L90 42.8875L90 44.8823L106 44.8823ZM106 40.8927L106 38.898L90 38.898L90 40.8927L106 40.8927ZM106 36.9032L106 34.9084L90 34.9084L90 36.9032L106 36.9032ZM106 32.9137L106 30.9189L90 30.9189L90 32.9137L106 32.9137ZM106 28.9241L106 26.9294L90 26.9294L90 28.9241L106 28.9241ZM106 24.9346L106 22.9398L90 22.9398L90 24.9346L106 24.9346ZM106 20.9451L106 18.9503L90 18.9503L90 20.9451L106 20.9451ZM106 16.9555L106 14.9608L90 14.9608L90 16.9555L106 16.9555ZM106 12.966L106 10.9712L90 10.9712L90 12.966L106 12.966ZM106 8.97648L106 6.98171L90 6.98171L90 8.97648L106 8.97648ZM106 4.98695L106 2.99218L90 2.99218L90 4.98695L106 4.98695ZM106 0.997413L106 -8.27195e-06L90 -6.98684e-06L90 0.997414L106 0.997413ZM98 -1.00001L96.9837 -1.00001L96.9837 0.999992L98 0.999992L98 -1.00001ZM94.9511 -1.00001L92.9185 -1.00001L92.9185 0.999993L94.9511 0.999993L94.9511 -1.00001ZM90.8858 -1.00001L88.8532 -1.00001L88.8532 0.999993L90.8858 0.999993L90.8858 -1.00001ZM86.8206 -1.00001L84.788 -1.00001L84.788 0.999993L86.8206 0.999993L86.8206 -1.00001ZM82.7554 -1.00001L80.7228 -1.00001L80.7228 0.999994L82.7554 0.999994L82.7554 -1.00001ZM78.6902 -1.00001L76.6576 -1.00001L76.6576 0.999994L78.6902 0.999994L78.6902 -1.00001ZM74.625 -1.00001L72.5924 -1.00001L72.5924 0.999994L74.625 0.999994L74.625 -1.00001ZM70.5598 -1.00001L68.5272 -1.00001L68.5272 0.999995L70.5598 0.999995L70.5598 -1.00001ZM66.4945 -1.00001L64.4619 -1L64.4619 0.999995L66.4945 0.999995L66.4945 -1.00001ZM62.4293 -1L60.3967 -1L60.3967 0.999995L62.4293 0.999995L62.4293 -1ZM58.3641 -1L56.3315 -1L56.3315 0.999996L58.3641 0.999996L58.3641 -1ZM54.2989 -1L52.2663 -1L52.2663 0.999996L54.2989 0.999996L54.2989 -1ZM50.2337 -1L48.2011 -1L48.2011 0.999996L50.2337 0.999996L50.2337 -1ZM46.1685 -1L44.1359 -1L44.1359 0.999997L46.1685 0.999997L46.1685 -1ZM42.1032 -1L40.0706 -1L40.0706 0.999997L42.1032 0.999997L42.1032 -1ZM38.038 -1L36.0054 -1L36.0054 0.999997L38.038 0.999997L38.038 -1ZM33.9728 -1L31.9402 -1L31.9402 0.999998L33.9728 0.999998L33.9728 -1ZM29.9076 -1L27.875 -1L27.875 0.999998L29.9076 0.999998L29.9076 -1ZM25.8424 -1L23.8098 -1L23.8098 0.999998L25.8424 0.999998L25.8424 -1ZM21.7772 -1L19.7446 -1L19.7446 0.999999L21.7772 0.999998L21.7772 -1ZM17.712 -1L15.6793 -1L15.6793 0.999999L17.712 0.999999L17.712 -1ZM13.6467 -1L11.6141 -1L11.6141 0.999999L13.6467 0.999999L13.6467 -1ZM9.58152 -1L7.54891 -1L7.54891 1L9.58152 0.999999L9.58152 -1ZM5.5163 -1L3.48369 -1L3.48369 1L5.5163 1L5.5163 -1ZM1.45109 -1L0.434752 -1L0.434752 1L1.45109 1L1.45109 -1Z"
        fill="#3040D3" mask="url(#path-1-inside-1_1_368)" />
</svg>