<svg width="34" height="34" viewBox="0 0 34 34" fill="none" xmlns="http://www.w3.org/2000/svg">
    <path
        d="M28.75 33.0001L23.875 28.1667L20.2083 31.8334L19.0417 30.6667C18.4028 30.0279 18.0833 29.2362 18.0833 28.2917C18.0833 27.3473 18.4028 26.5556 19.0417 25.9167L26.0833 18.8751C26.7222 18.2362 27.5139 17.9167 28.4583 17.9167C29.4028 17.9167 30.1945 18.2362 30.8333 18.8751L32 20.0417L28.3333 23.7084L33.1667 28.5834C33.5 28.9167 33.6667 29.3056 33.6667 29.7501C33.6667 30.1945 33.5 30.5834 33.1667 30.9167L31.0833 33.0001C30.75 33.3334 30.3611 33.5001 29.9167 33.5001C29.4722 33.5001 29.0833 33.3334 28.75 33.0001ZM33.6667 6.83341L14.75 25.7501L14.9583 25.9167C15.5972 26.5556 15.9167 27.3473 15.9167 28.2917C15.9167 29.2362 15.5972 30.0279 14.9583 30.6667L13.7917 31.8334L10.125 28.1667L5.25001 33.0001C4.91668 33.3334 4.52779 33.5001 4.08334 33.5001C3.6389 33.5001 3.25001 33.3334 2.91668 33.0001L0.833343 30.9167C0.50001 30.5834 0.333344 30.1945 0.333344 29.7501C0.333344 29.3056 0.50001 28.9167 0.833343 28.5834L5.66668 23.7084L2.00001 20.0417L3.16668 18.8751C3.80557 18.2362 4.59723 17.9167 5.54168 17.9167C6.48612 17.9167 7.27779 18.2362 7.91668 18.8751L8.08334 19.0834L27 0.166748H33.6667V6.83341ZM8.58334 15.0834L0.333344 6.83341V0.166748H7.00001L15.25 8.41675L8.58334 15.0834Z"
        fill="black" />
</svg>
    