<svg width="1440" height="127" viewBox="0 0 1440 127" fill="none" xmlns="http://www.w3.org/2000/svg">
    <g opacity="0.15" filter="url(#filter0_f_1_98)">
        <mask id="path-1-outside-1_1_98" maskUnits="userSpaceOnUse" x="-43" y="5" width="1523"
            height="117" fill="black">
            <rect fill="white" x="-43" y="5" width="1523" height="117" />
            <path
                d="M32.3216 56.4738C39.9074 56.4738 46.4129 56.7845 51.8382 57.4059C57.2635 58.0272 61.8246 58.9593 65.5215 60.202C69.2663 61.3969 72.243 62.9025 74.4516 64.7188C76.6601 66.5351 78.3645 68.6143 79.5648 70.9564C80.7651 73.2506 81.5332 75.8317 81.8693 78.6995C82.2534 81.5673 82.4455 84.6741 82.4455 88.02C82.4455 91.3658 82.1334 94.5204 81.5092 97.4838C80.9331 100.399 79.8768 103.076 78.3405 105.514C76.8041 107.951 74.7156 110.126 72.075 112.038C69.4344 113.95 66.0736 115.575 61.9926 116.913C57.9116 118.252 52.9905 119.255 47.2291 119.925C41.5158 120.642 34.8182 121 27.1364 121H8.7C1.78636 121 -4.26307 120.737 -9.4483 120.211C-14.6335 119.686 -19.0986 118.897 -22.8435 117.845C-26.5884 116.746 -29.6851 115.384 -32.1337 113.759C-34.5822 112.086 -36.5507 110.15 -38.0391 107.951C-39.4794 105.705 -40.4876 103.172 -41.0638 100.352C-41.6399 97.4838 -41.928 94.3292 -41.928 90.8878H-28.1007C-28.1007 95.1895 -27.4766 98.5592 -26.2283 100.997C-24.98 103.435 -22.9155 105.275 -20.0348 106.517C-17.1541 107.712 -13.3852 108.477 -8.72812 108.812C-4.02301 109.099 1.78636 109.242 8.7 109.242H27.1364C35.2023 109.242 41.8999 108.86 47.2291 108.095C52.5584 107.33 56.8074 106.111 59.9761 104.438C63.1449 102.765 65.3774 100.591 66.6737 97.914C67.97 95.1895 68.6182 91.8915 68.6182 88.02C68.6182 84.1484 68.1621 80.9221 67.2499 78.341C66.3857 75.76 64.6332 73.7047 61.9926 72.1752C59.4 70.6457 55.7271 69.5702 50.974 68.9489C46.2209 68.2797 40.0034 67.9451 32.3216 67.9451L13.3091 67.9451C4.85909 67.9451 -2.39062 67.6345 -8.44006 67.0131C-14.4415 66.3917 -19.4827 65.5075 -23.5636 64.3603C-27.6446 63.1654 -30.9094 61.7076 -33.358 59.9869C-35.8065 58.2184 -37.679 56.2109 -38.9753 53.9645C-40.2236 51.718 -41.0398 49.2325 -41.4239 46.5081C-41.808 43.7359 -42 40.7485 -42 37.5461C-42 34.2003 -41.7119 31.0935 -41.1358 28.2257C-40.5116 25.3579 -39.3834 22.7768 -37.751 20.4825C-36.1186 18.1405 -33.8861 16.0613 -31.0534 14.245C-28.2207 12.4287 -24.5959 10.9231 -20.1788 9.72818C-15.7138 8.48545 -10.3605 7.55341 -4.11903 6.93204C2.12244 6.31068 9.46818 6 17.9182 6L31.7455 6C38.6591 6 44.7085 6.26288 49.8938 6.78865C55.079 7.26663 59.544 8.05528 63.2889 9.15461C67.0338 10.2062 70.1305 11.5445 72.5791 13.1696C75.0757 14.7469 77.0442 16.6588 78.4845 18.9052C79.9729 21.1039 81.0051 23.6133 81.5813 26.4333C82.1574 29.2533 82.4455 32.384 82.4455 35.8254L68.6182 35.8254C68.6182 31.5237 67.994 28.154 66.7457 25.7163C65.4974 23.2787 63.433 21.4624 60.5523 20.2675C57.6716 19.0247 53.8787 18.26 49.1736 17.9732C44.4685 17.6386 38.6591 17.4713 31.7455 17.4713L17.9182 17.4713C8.7 17.4713 1.11421 17.8059 -4.8392 18.4751C-10.7926 19.0964 -15.4977 20.1719 -18.9545 21.7014C-22.4114 23.2309 -24.8119 25.2862 -26.1563 27.8672C-27.5006 30.4483 -28.1727 33.6746 -28.1727 37.5461C-28.1727 39.936 -28.0047 42.063 -27.6686 43.9271C-27.3325 45.7911 -26.6604 47.4402 -25.6521 48.8741C-24.5959 50.2602 -23.1315 51.4312 -21.2591 52.3872C-19.3866 53.3431 -16.9141 54.1318 -13.8413 54.7531C-10.7686 55.3745 -7.02372 55.8286 -2.60667 56.1153C1.85838 56.3543 7.16364 56.4738 13.3091 56.4738L32.3216 56.4738Z" />
            <path
                d="M220.718 8.29426L234.545 8.29426V118.419H220.718V67.9451L119.318 67.9451L119.318 118.419H105.491L105.491 8.29426L119.318 8.29426V56.4738L220.718 56.4738V8.29426Z" />
            <path
                d="M370.514 93.182L282.941 93.182L269.114 118.419L252.982 118.419L317.509 8.29426L335.945 8.29426L400.473 118.419H384.341L370.514 93.182ZM363.6 81.7107L326.727 17.4713L289.855 81.7107L363.6 81.7107Z" />
            <path
                d="M501.801 106.948C507.898 106.948 513.059 106.78 517.284 106.446C521.509 106.111 524.99 105.442 527.727 104.438C530.464 103.387 532.576 101.881 534.064 99.9214C535.553 97.9618 536.633 95.3807 537.305 92.1783C538.025 88.9281 538.433 84.9609 538.529 80.2768C538.673 75.5449 538.745 69.9048 538.745 63.3566C538.745 56.8084 538.673 51.1922 538.529 46.5081C538.433 41.7762 538.025 37.809 537.305 34.6066C536.633 31.3564 535.553 28.7515 534.064 26.7918C532.576 24.8321 530.464 23.3504 527.727 22.3466C524.99 21.2951 521.509 20.602 517.284 20.2675C513.107 19.9329 507.946 19.7656 501.801 19.7656L432.736 19.7656V106.948L501.801 106.948ZM418.909 118.419V8.29426L501.801 8.29426C510.251 8.29426 517.356 8.79613 523.118 9.79988C528.927 10.7558 533.704 12.2375 537.449 14.245C541.242 16.2525 544.147 18.7618 546.163 21.7731C548.228 24.7843 549.716 28.3452 550.628 32.4557C551.589 36.5185 552.141 41.1309 552.285 46.293C552.477 51.4073 552.573 57.0952 552.573 63.3566C552.573 69.618 552.477 75.3298 552.285 80.4919C552.141 85.6062 551.589 90.2186 550.628 94.3292C549.716 98.3919 548.228 101.929 546.163 104.94C544.147 107.951 541.242 110.461 537.449 112.468C533.704 114.476 528.927 115.981 523.118 116.985C517.356 117.941 510.251 118.419 501.801 118.419L418.909 118.419Z" />
            <path
                d="M663.263 6C671.713 6 678.819 6.52577 684.58 7.57731C690.389 8.58105 695.166 10.1345 698.911 12.2375C702.656 14.2928 705.537 16.8978 707.553 20.0524C709.57 23.207 711.034 26.9113 711.946 31.1652C712.907 35.4192 713.459 40.2228 713.603 45.5761C713.795 50.9293 713.891 56.8562 713.891 63.3566C713.891 69.857 713.795 75.7839 713.603 81.1372C713.459 86.4904 712.907 91.2941 711.946 95.548C711.034 99.802 709.57 103.506 707.553 106.661C705.537 109.815 702.656 112.444 698.911 114.547C695.166 116.603 690.389 118.132 684.58 119.136C678.819 120.187 671.713 120.713 663.263 120.713H621.637C613.187 120.713 606.057 120.187 600.248 119.136C594.487 118.132 589.734 116.603 585.989 114.547C582.244 112.444 579.339 109.815 577.275 106.661C575.258 103.506 573.77 99.802 572.81 95.548C571.897 91.2941 571.369 86.4904 571.225 81.1372C571.081 75.7839 571.009 69.857 571.009 63.3566C571.009 56.8562 571.081 50.9293 571.225 45.5761C571.369 40.2228 571.897 35.4192 572.81 31.1652C573.77 26.9113 575.258 23.207 577.275 20.0524C579.339 16.8978 582.244 14.2928 585.989 12.2375C589.734 10.1345 594.487 8.58105 600.248 7.57731C606.057 6.52577 613.187 6 621.637 6L663.263 6ZM663.263 109.242C669.36 109.242 674.498 109.075 678.675 108.74C682.9 108.358 686.38 107.617 689.117 106.517C691.854 105.418 693.966 103.841 695.455 101.786C696.943 99.7303 698.023 97.0058 698.695 93.6122C699.367 90.2186 699.752 86.0603 699.848 81.1372C699.992 76.1662 700.064 70.2394 700.064 63.3566C700.064 56.4738 699.992 50.5709 699.848 45.6478C699.752 40.6768 699.367 36.4946 698.695 33.101C698.023 29.7074 696.943 26.983 695.455 24.9277C693.966 22.8724 691.854 21.2951 689.117 20.1958C686.428 19.0964 682.972 18.3795 678.747 18.0449C674.57 17.6625 669.408 17.4713 663.263 17.4713L621.637 17.4713C615.492 17.4713 610.306 17.6625 606.081 18.0449C601.904 18.3795 598.448 19.0964 595.711 20.1958C592.974 21.2951 590.862 22.8724 589.373 24.9277C587.885 26.983 586.805 29.7074 586.133 33.101C585.461 36.4946 585.076 40.6768 584.98 45.6478C584.884 50.5709 584.836 56.4738 584.836 63.3566C584.836 70.2394 584.884 76.1662 584.98 81.1372C585.124 86.0603 585.533 90.2186 586.205 93.6122C586.877 97.0058 587.933 99.7303 589.373 101.786C590.862 103.841 592.974 105.418 595.711 106.517C598.448 107.617 601.904 108.358 606.081 108.74C610.306 109.075 615.492 109.242 621.637 109.242H663.263Z" />
            <path
                d="M837.184 8.29426L853.316 8.29426L898.255 106.948L942.041 8.29426L958.173 8.29426L907.473 118.419H889.036L845.25 22.0599L801.464 118.419L783.027 118.419L727.718 8.29426L743.85 8.29426L792.245 106.948L837.184 8.29426Z" />
            <path
                d="M976.609 118.419V8.29426L1082.62 8.29426V19.7656L990.436 19.7656V56.4738L1078.01 56.4738V67.9451H990.436V118.419H976.609Z" />
            <path
                d="M1209.37 93.182L1121.8 93.182L1107.97 118.419H1091.84L1156.36 8.29426L1174.8 8.29426L1239.33 118.419H1223.2L1209.37 93.182ZM1202.45 81.7107L1165.58 17.4713L1128.71 81.7107L1202.45 81.7107Z" />
            <path
                d="M1257.76 118.419V8.29426L1271.59 8.29426V106.948L1359.16 106.948V118.419L1257.76 118.419Z" />
            <path
                d="M1377.6 118.419V8.29426L1391.43 8.29426V106.948L1479 106.948V118.419L1377.6 118.419Z" />
        </mask>
        <path
            d="M32.3216 56.4738C39.9074 56.4738 46.4129 56.7845 51.8382 57.4059C57.2635 58.0272 61.8246 58.9593 65.5215 60.202C69.2663 61.3969 72.243 62.9025 74.4516 64.7188C76.6601 66.5351 78.3645 68.6143 79.5648 70.9564C80.7651 73.2506 81.5332 75.8317 81.8693 78.6995C82.2534 81.5673 82.4455 84.6741 82.4455 88.02C82.4455 91.3658 82.1334 94.5204 81.5092 97.4838C80.9331 100.399 79.8768 103.076 78.3405 105.514C76.8041 107.951 74.7156 110.126 72.075 112.038C69.4344 113.95 66.0736 115.575 61.9926 116.913C57.9116 118.252 52.9905 119.255 47.2291 119.925C41.5158 120.642 34.8182 121 27.1364 121H8.7C1.78636 121 -4.26307 120.737 -9.4483 120.211C-14.6335 119.686 -19.0986 118.897 -22.8435 117.845C-26.5884 116.746 -29.6851 115.384 -32.1337 113.759C-34.5822 112.086 -36.5507 110.15 -38.0391 107.951C-39.4794 105.705 -40.4876 103.172 -41.0638 100.352C-41.6399 97.4838 -41.928 94.3292 -41.928 90.8878H-28.1007C-28.1007 95.1895 -27.4766 98.5592 -26.2283 100.997C-24.98 103.435 -22.9155 105.275 -20.0348 106.517C-17.1541 107.712 -13.3852 108.477 -8.72812 108.812C-4.02301 109.099 1.78636 109.242 8.7 109.242H27.1364C35.2023 109.242 41.8999 108.86 47.2291 108.095C52.5584 107.33 56.8074 106.111 59.9761 104.438C63.1449 102.765 65.3774 100.591 66.6737 97.914C67.97 95.1895 68.6182 91.8915 68.6182 88.02C68.6182 84.1484 68.1621 80.9221 67.2499 78.341C66.3857 75.76 64.6332 73.7047 61.9926 72.1752C59.4 70.6457 55.7271 69.5702 50.974 68.9489C46.2209 68.2797 40.0034 67.9451 32.3216 67.9451L13.3091 67.9451C4.85909 67.9451 -2.39062 67.6345 -8.44006 67.0131C-14.4415 66.3917 -19.4827 65.5075 -23.5636 64.3603C-27.6446 63.1654 -30.9094 61.7076 -33.358 59.9869C-35.8065 58.2184 -37.679 56.2109 -38.9753 53.9645C-40.2236 51.718 -41.0398 49.2325 -41.4239 46.5081C-41.808 43.7359 -42 40.7485 -42 37.5461C-42 34.2003 -41.7119 31.0935 -41.1358 28.2257C-40.5116 25.3579 -39.3834 22.7768 -37.751 20.4825C-36.1186 18.1405 -33.8861 16.0613 -31.0534 14.245C-28.2207 12.4287 -24.5959 10.9231 -20.1788 9.72818C-15.7138 8.48545 -10.3605 7.55341 -4.11903 6.93204C2.12244 6.31068 9.46818 6 17.9182 6L31.7455 6C38.6591 6 44.7085 6.26288 49.8938 6.78865C55.079 7.26663 59.544 8.05528 63.2889 9.15461C67.0338 10.2062 70.1305 11.5445 72.5791 13.1696C75.0757 14.7469 77.0442 16.6588 78.4845 18.9052C79.9729 21.1039 81.0051 23.6133 81.5813 26.4333C82.1574 29.2533 82.4455 32.384 82.4455 35.8254L68.6182 35.8254C68.6182 31.5237 67.994 28.154 66.7457 25.7163C65.4974 23.2787 63.433 21.4624 60.5523 20.2675C57.6716 19.0247 53.8787 18.26 49.1736 17.9732C44.4685 17.6386 38.6591 17.4713 31.7455 17.4713L17.9182 17.4713C8.7 17.4713 1.11421 17.8059 -4.8392 18.4751C-10.7926 19.0964 -15.4977 20.1719 -18.9545 21.7014C-22.4114 23.2309 -24.8119 25.2862 -26.1563 27.8672C-27.5006 30.4483 -28.1727 33.6746 -28.1727 37.5461C-28.1727 39.936 -28.0047 42.063 -27.6686 43.9271C-27.3325 45.7911 -26.6604 47.4402 -25.6521 48.8741C-24.5959 50.2602 -23.1315 51.4312 -21.2591 52.3872C-19.3866 53.3431 -16.9141 54.1318 -13.8413 54.7531C-10.7686 55.3745 -7.02372 55.8286 -2.60667 56.1153C1.85838 56.3543 7.16364 56.4738 13.3091 56.4738L32.3216 56.4738Z"
            stroke="black" stroke-width="2" mask="url(#path-1-outside-1_1_98)" />
        <path
            d="M220.718 8.29426L234.545 8.29426V118.419H220.718V67.9451L119.318 67.9451L119.318 118.419H105.491L105.491 8.29426L119.318 8.29426V56.4738L220.718 56.4738V8.29426Z"
            stroke="black" stroke-width="2" mask="url(#path-1-outside-1_1_98)" />
        <path
            d="M370.514 93.182L282.941 93.182L269.114 118.419L252.982 118.419L317.509 8.29426L335.945 8.29426L400.473 118.419H384.341L370.514 93.182ZM363.6 81.7107L326.727 17.4713L289.855 81.7107L363.6 81.7107Z"
            stroke="black" stroke-width="2" mask="url(#path-1-outside-1_1_98)" />
        <path
            d="M501.801 106.948C507.898 106.948 513.059 106.78 517.284 106.446C521.509 106.111 524.99 105.442 527.727 104.438C530.464 103.387 532.576 101.881 534.064 99.9214C535.553 97.9618 536.633 95.3807 537.305 92.1783C538.025 88.9281 538.433 84.9609 538.529 80.2768C538.673 75.5449 538.745 69.9048 538.745 63.3566C538.745 56.8084 538.673 51.1922 538.529 46.5081C538.433 41.7762 538.025 37.809 537.305 34.6066C536.633 31.3564 535.553 28.7515 534.064 26.7918C532.576 24.8321 530.464 23.3504 527.727 22.3466C524.99 21.2951 521.509 20.602 517.284 20.2675C513.107 19.9329 507.946 19.7656 501.801 19.7656L432.736 19.7656V106.948L501.801 106.948ZM418.909 118.419V8.29426L501.801 8.29426C510.251 8.29426 517.356 8.79613 523.118 9.79988C528.927 10.7558 533.704 12.2375 537.449 14.245C541.242 16.2525 544.147 18.7618 546.163 21.7731C548.228 24.7843 549.716 28.3452 550.628 32.4557C551.589 36.5185 552.141 41.1309 552.285 46.293C552.477 51.4073 552.573 57.0952 552.573 63.3566C552.573 69.618 552.477 75.3298 552.285 80.4919C552.141 85.6062 551.589 90.2186 550.628 94.3292C549.716 98.3919 548.228 101.929 546.163 104.94C544.147 107.951 541.242 110.461 537.449 112.468C533.704 114.476 528.927 115.981 523.118 116.985C517.356 117.941 510.251 118.419 501.801 118.419L418.909 118.419Z"
            stroke="black" stroke-width="2" mask="url(#path-1-outside-1_1_98)" />
        <path
            d="M663.263 6C671.713 6 678.819 6.52577 684.58 7.57731C690.389 8.58105 695.166 10.1345 698.911 12.2375C702.656 14.2928 705.537 16.8978 707.553 20.0524C709.57 23.207 711.034 26.9113 711.946 31.1652C712.907 35.4192 713.459 40.2228 713.603 45.5761C713.795 50.9293 713.891 56.8562 713.891 63.3566C713.891 69.857 713.795 75.7839 713.603 81.1372C713.459 86.4904 712.907 91.2941 711.946 95.548C711.034 99.802 709.57 103.506 707.553 106.661C705.537 109.815 702.656 112.444 698.911 114.547C695.166 116.603 690.389 118.132 684.58 119.136C678.819 120.187 671.713 120.713 663.263 120.713H621.637C613.187 120.713 606.057 120.187 600.248 119.136C594.487 118.132 589.734 116.603 585.989 114.547C582.244 112.444 579.339 109.815 577.275 106.661C575.258 103.506 573.77 99.802 572.81 95.548C571.897 91.2941 571.369 86.4904 571.225 81.1372C571.081 75.7839 571.009 69.857 571.009 63.3566C571.009 56.8562 571.081 50.9293 571.225 45.5761C571.369 40.2228 571.897 35.4192 572.81 31.1652C573.77 26.9113 575.258 23.207 577.275 20.0524C579.339 16.8978 582.244 14.2928 585.989 12.2375C589.734 10.1345 594.487 8.58105 600.248 7.57731C606.057 6.52577 613.187 6 621.637 6L663.263 6ZM663.263 109.242C669.36 109.242 674.498 109.075 678.675 108.74C682.9 108.358 686.38 107.617 689.117 106.517C691.854 105.418 693.966 103.841 695.455 101.786C696.943 99.7303 698.023 97.0058 698.695 93.6122C699.367 90.2186 699.752 86.0603 699.848 81.1372C699.992 76.1662 700.064 70.2394 700.064 63.3566C700.064 56.4738 699.992 50.5709 699.848 45.6478C699.752 40.6768 699.367 36.4946 698.695 33.101C698.023 29.7074 696.943 26.983 695.455 24.9277C693.966 22.8724 691.854 21.2951 689.117 20.1958C686.428 19.0964 682.972 18.3795 678.747 18.0449C674.57 17.6625 669.408 17.4713 663.263 17.4713L621.637 17.4713C615.492 17.4713 610.306 17.6625 606.081 18.0449C601.904 18.3795 598.448 19.0964 595.711 20.1958C592.974 21.2951 590.862 22.8724 589.373 24.9277C587.885 26.983 586.805 29.7074 586.133 33.101C585.461 36.4946 585.076 40.6768 584.98 45.6478C584.884 50.5709 584.836 56.4738 584.836 63.3566C584.836 70.2394 584.884 76.1662 584.98 81.1372C585.124 86.0603 585.533 90.2186 586.205 93.6122C586.877 97.0058 587.933 99.7303 589.373 101.786C590.862 103.841 592.974 105.418 595.711 106.517C598.448 107.617 601.904 108.358 606.081 108.74C610.306 109.075 615.492 109.242 621.637 109.242H663.263Z"
            stroke="black" stroke-width="2" mask="url(#path-1-outside-1_1_98)" />
        <path
            d="M837.184 8.29426L853.316 8.29426L898.255 106.948L942.041 8.29426L958.173 8.29426L907.473 118.419H889.036L845.25 22.0599L801.464 118.419L783.027 118.419L727.718 8.29426L743.85 8.29426L792.245 106.948L837.184 8.29426Z"
            stroke="black" stroke-width="2" mask="url(#path-1-outside-1_1_98)" />
        <path
            d="M976.609 118.419V8.29426L1082.62 8.29426V19.7656L990.436 19.7656V56.4738L1078.01 56.4738V67.9451H990.436V118.419H976.609Z"
            stroke="black" stroke-width="2" mask="url(#path-1-outside-1_1_98)" />
        <path
            d="M1209.37 93.182L1121.8 93.182L1107.97 118.419H1091.84L1156.36 8.29426L1174.8 8.29426L1239.33 118.419H1223.2L1209.37 93.182ZM1202.45 81.7107L1165.58 17.4713L1128.71 81.7107L1202.45 81.7107Z"
            stroke="black" stroke-width="2" mask="url(#path-1-outside-1_1_98)" />
        <path
            d="M1257.76 118.419V8.29426L1271.59 8.29426V106.948L1359.16 106.948V118.419L1257.76 118.419Z"
            stroke="black" stroke-width="2" mask="url(#path-1-outside-1_1_98)" />
        <path
            d="M1377.6 118.419V8.29426L1391.43 8.29426V106.948L1479 106.948V118.419L1377.6 118.419Z"
            stroke="black" stroke-width="2" mask="url(#path-1-outside-1_1_98)" />
    </g>
    <defs>
        <filter id="filter0_f_1_98" x="-48" y="0" width="1533" height="127"
            filterUnits="userSpaceOnUse" color-interpolation-filters="sRGB">
            <feFlood flood-opacity="0" result="BackgroundImageFix" />
            <feBlend mode="normal" in="SourceGraphic" in2="BackgroundImageFix" result="shape" />
            <feGaussianBlur stdDeviation="2.5" result="effect1_foregroundBlur_1_98" />
        </filter>
    </defs>
</svg>
    